<svg xmlns="http://www.w3.org/2000/svg" width="369" height="69" viewBox="0 0 369 69">
    <path fill="#0B0B09" fill-rule="evenodd" d="M26.833 24.537c7.894 0 13.966 5.981 13.966 13.73 0 7.747-5.664 13.727-13.556 13.727-1.733 0-3.495-.736-4.495-1.662v18.014h-8.545l-.018-30.613c0-6.748 5.961-13.196 12.648-13.196zm56.698 0c5.037 0 9.503 2.653 11.736 6.657l-6.803 3.952c-.884-1.82-2.753-2.912-5.038-2.912-3.374 0-5.867 2.443-5.867 6.032 0 3.588 2.493 6.031 5.867 6.031 2.285 0 4.207-1.092 5.038-2.912l6.803 3.901c-2.233 4.056-6.647 6.708-11.736 6.708-7.894 0-13.762-5.98-13.762-13.728 0-7.748 5.868-13.729 13.762-13.729zM361.655 37.61c1.033 0 1.991.18 2.875.538.883.359 1.646.85 2.288 1.475.641.625 1.145 1.358 1.511 2.2.367.842.551 1.746.551 2.712v.05c0 .968-.184 1.872-.55 2.713-.367.84-.876 1.579-1.525 2.213-.65.633-1.417 1.133-2.3 1.5-.884.366-1.85.549-2.9.549-1.034 0-1.992-.18-2.875-.537-.884-.358-1.646-.85-2.287-1.475-.642-.625-1.147-1.36-1.513-2.2-.367-.841-.55-1.746-.55-2.712v-.05c0-.967.183-1.871.55-2.713.366-.842.875-1.58 1.524-2.213.651-.633 1.417-1.133 2.301-1.5.883-.366 1.85-.55 2.9-.55zm-216.564 0c1.117 0 2.083.2 2.9.6.817.4 1.496.938 2.038 1.612.541.675.941 1.451 1.2 2.326.258.875.387 1.787.387 2.737 0 .15-.004.31-.012.475-.009.167-.021.341-.038.525h-9.325c.183.866.563 1.521 1.138 1.962.575.442 1.287.663 2.137.663.633 0 1.2-.108 1.7-.325.5-.217 1.016-.567 1.55-1.05l2.175 1.925c-.633.783-1.4 1.396-2.3 1.838-.9.441-1.958.662-3.175.662-1 0-1.929-.167-2.787-.5-.859-.333-1.6-.809-2.225-1.425s-1.113-1.346-1.463-2.187c-.35-.842-.525-1.78-.525-2.813v-.05c0-.95.163-1.85.488-2.7.325-.85.778-1.592 1.362-2.226.583-.632 1.279-1.132 2.088-1.5.808-.366 1.703-.549 2.687-.549zm193.97 0c1.117 0 2.083.2 2.9.6.817.4 1.496.938 2.037 1.612.542.675.942 1.451 1.2 2.326.259.875.388 1.787.388 2.737 0 .15-.004.31-.012.475-.01.167-.021.341-.038.525h-9.325c.183.866.563 1.521 1.138 1.962.575.442 1.287.663 2.137.663.633 0 1.2-.108 1.7-.325.5-.217 1.016-.567 1.55-1.05l2.175 1.925c-.633.783-1.4 1.396-2.3 1.838-.9.441-1.958.662-3.175.662-1 0-1.93-.167-2.787-.5-.86-.333-1.6-.809-2.225-1.425s-1.113-1.346-1.463-2.187c-.35-.842-.525-1.78-.525-2.813v-.05c0-.95.163-1.85.488-2.7.325-.85.779-1.592 1.362-2.226.583-.632 1.279-1.132 2.088-1.5.808-.366 1.703-.549 2.687-.549zm-77.588 0c1.033 0 1.991.18 2.875.538.883.359 1.646.85 2.288 1.475.641.625 1.145 1.358 1.512 2.2.366.842.55 1.746.55 2.712v.05c0 .968-.184 1.872-.55 2.713-.367.84-.875 1.579-1.526 2.213-.649.633-1.417 1.133-2.299 1.5-.884.366-1.85.549-2.9.549-1.033 0-1.992-.18-2.875-.537-.884-.358-1.646-.85-2.287-1.475-.642-.625-1.147-1.36-1.513-2.2-.367-.841-.55-1.746-.55-2.712v-.05c0-.967.183-1.871.55-2.713.366-.842.874-1.58 1.525-2.213.65-.633 1.416-1.133 2.3-1.5.882-.366 1.85-.55 2.9-.55zm25.724-4.15c.817 0 1.563.067 2.238.2s1.287.317 1.837.55c.55.234 1.058.517 1.525.85.467.334.9.7 1.3 1.1l-2.45 2.825c-.683-.616-1.38-1.1-2.087-1.45-.71-.35-1.505-.525-2.388-.525-.733 0-1.412.142-2.037.425-.625.283-1.163.675-1.613 1.175-.45.5-.8 1.08-1.05 1.737-.25.66-.375 1.363-.375 2.113v.05c0 .75.125 1.458.375 2.125s.596 1.25 1.038 1.75c.44.5.974.896 1.6 1.188.625.292 1.312.437 2.062.437 1 0 1.846-.183 2.538-.55.69-.367 1.379-.867 2.062-1.5l2.45 2.475c-.45.483-.917.917-1.4 1.3-.483.384-1.012.713-1.588.987-.574.276-1.204.484-1.887.625-.683.142-1.45.213-2.3.213-1.283 0-2.475-.233-3.575-.7-1.1-.466-2.05-1.104-2.85-1.912-.8-.809-1.425-1.763-1.875-2.863-.45-1.1-.675-2.275-.675-3.525v-.05c0-1.25.225-2.42.675-3.513.45-1.09 1.075-2.049 1.875-2.875.8-.825 1.758-1.474 2.875-1.95 1.116-.474 2.35-.712 3.7-.712zm-151.13-.45v18.25h-3.8v-1.924c-.468.633-1.03 1.154-1.688 1.562-.659.408-1.488.613-2.488.613-.783 0-1.542-.151-2.275-.451-.733-.3-1.383-.746-1.95-1.338-.567-.59-1.02-1.316-1.362-2.174-.342-.86-.513-1.846-.513-2.962v-.051c0-1.116.171-2.104.513-2.962.341-.858.791-1.583 1.35-2.175.558-.592 1.204-1.038 1.937-1.338.733-.3 1.5-.45 2.3-.45 1.017 0 1.854.2 2.513.6.658.4 1.212.867 1.662 1.4v-6.6h3.8zm115.779 0v18.25h-3.8v-1.924c-.467.633-1.03 1.154-1.687 1.562-.66.408-1.488.613-2.488.613-.783 0-1.542-.151-2.275-.451-.733-.3-1.383-.746-1.95-1.338-.567-.59-1.021-1.316-1.362-2.174-.342-.86-.513-1.846-.513-2.962v-.051c0-1.116.17-2.104.513-2.962.34-.858.79-1.583 1.35-2.175.558-.592 1.204-1.038 1.937-1.338.733-.3 1.5-.45 2.3-.45 1.017 0 1.854.2 2.513.6.658.4 1.212.867 1.662 1.4v-6.6h3.8zm50.378 4.7c1.05 0 1.946.13 2.688.387.741.26 1.354.63 1.837 1.113.5.5.867 1.112 1.1 1.837.233.726.35 1.538.35 2.438v7.775h-3.675v-1.45c-.466.516-1.025.93-1.675 1.237-.65.31-1.442.463-2.375.463-.633 0-1.229-.088-1.788-.263-.558-.174-1.045-.437-1.462-.787-.416-.35-.746-.779-.988-1.288-.241-.508-.362-1.096-.362-1.763v-.049c0-.734.133-1.367.4-1.9.267-.533.638-.975 1.113-1.325.474-.35 1.041-.612 1.699-.788.659-.175 1.388-.262 2.188-.262.683 0 1.279.05 1.787.15.509.1 1.004.233 1.488.4v-.226c0-.799-.241-1.408-.725-1.824-.483-.417-1.2-.625-2.15-.625-.734 0-1.379.063-1.938.188-.558.125-1.145.303-1.762.537l-.95-2.9c.733-.317 1.5-.575 2.3-.775.8-.2 1.767-.3 2.9-.3zm13.445-.05c.85 0 1.713.137 2.588.412.875.275 1.679.655 2.412 1.138l-1.45 2.625c-.667-.384-1.316-.687-1.95-.913-.633-.225-1.192-.337-1.675-.337-.467 0-.816.087-1.05.262-.233.176-.35.396-.35.663v.05c0 .183.075.346.225.487.15.142.35.275.6.4s.537.247.863.363c.324.117.67.233 1.037.35.467.15.942.33 1.425.538.483.208.917.461 1.3.762.384.3.7.666.95 1.1.25.433.375.96.375 1.575v.05c0 .75-.13 1.396-.387 1.937-.26.542-.621.988-1.088 1.338-.466.35-1.012.613-1.637.787-.625.175-1.296.263-2.013.263-.95 0-1.921-.163-2.912-.487-.992-.325-1.938-.838-2.838-1.538l1.625-2.5c.733.534 1.463.933 2.188 1.2.725.266 1.404.4 2.037.4.55 0 .954-.092 1.212-.275.259-.184.388-.425.388-.725v-.05c0-.2-.075-.376-.225-.525-.15-.15-.354-.279-.613-.388-.258-.108-.553-.213-.887-.312-.333-.1-.683-.208-1.05-.325-.467-.133-.937-.296-1.412-.488-.475-.19-.905-.44-1.288-.75-.383-.308-.696-.687-.937-1.137-.242-.45-.363-1-.363-1.65v-.05c0-.683.129-1.288.388-1.813.258-.525.608-.97 1.049-1.337.442-.366.959-.642 1.55-.825.592-.184 1.23-.276 1.913-.276zm-123.301.05c1.05 0 1.945.13 2.687.387.74.26 1.354.63 1.838 1.113.5.5.866 1.112 1.1 1.837.233.726.35 1.538.35 2.438v7.775h-3.675v-1.45c-.467.516-1.025.93-1.675 1.237-.65.31-1.442.463-2.375.463-.634 0-1.23-.088-1.788-.263-.558-.174-1.046-.437-1.462-.787-.417-.35-.747-.779-.988-1.288-.241-.508-.362-1.096-.362-1.763v-.049c0-.734.133-1.367.4-1.9.266-.533.637-.975 1.112-1.325.475-.35 1.042-.612 1.7-.788.659-.175 1.388-.262 2.188-.262.683 0 1.279.05 1.787.15.508.1 1.004.233 1.488.4v-.226c0-.799-.242-1.408-.725-1.824-.484-.417-1.2-.625-2.15-.625-.734 0-1.38.063-1.938.188s-1.146.303-1.762.537l-.95-2.9c.733-.317 1.5-.575 2.3-.775.8-.2 1.766-.3 2.9-.3zm29.752 0c1.051 0 1.947.13 2.688.387.743.26 1.355.63 1.839 1.113.5.5.865 1.112 1.1 1.837.232.726.35 1.538.35 2.438v7.775h-3.676v-1.45c-.466.516-1.024.93-1.674 1.237-.65.31-1.442.463-2.377.463-.632 0-1.228-.088-1.786-.263-.558-.174-1.046-.437-1.462-.787-.418-.35-.747-.779-.988-1.288-.242-.508-.362-1.096-.362-1.763v-.049c0-.734.132-1.367.4-1.9.266-.533.636-.975 1.112-1.325.476-.35 1.041-.612 1.7-.788.658-.175 1.386-.262 2.187-.262.683 0 1.28.05 1.788.15.508.1 1.003.233 1.488.4v-.226c0-.799-.243-1.408-.726-1.824-.483-.417-1.2-.625-2.15-.625-.734 0-1.379.063-1.936.188-.56.125-1.147.303-1.763.537l-.95-2.9c.732-.317 1.5-.575 2.3-.775.8-.2 1.766-.3 2.898-.3zm105.571-3.275v3.425h3.15v3.25h-3.15v5.745c0 .87.409 1.305 1.225 1.305.667 0 1.292-.166 1.875-.5v3.051c-.4.233-.842.42-1.325.562-.484.141-1.042.212-1.675.212-.583 0-1.112-.062-1.587-.187-.475-.125-.884-.346-1.225-.663-.342-.316-.609-.729-.8-1.237-.192-.509-.288-1.154-.288-1.937v-6.351h-1.6v-3.25h1.6v-3.425h3.8zm-163.1-.675l4.575 12.325 4.574-12.325h4.15l-7.074 17.625h-3.4L160.34 33.76h4.25zM9.002 25.266v26H1.213v-26h7.789zm40.827 0l5.4 16.483 5.4-16.483h8.62l-9.607 26h-8.827l-9.607-26h8.62zM183.665 37.86v13.4h-3.8v-13.4h3.8zm25.385-.25c1.45 0 2.57.442 3.362 1.325.791.884 1.187 2.1 1.187 3.651v8.674H209.8v-7.457c0-.897-.2-1.575-.6-2.032-.4-.457-.967-.685-1.7-.685-.734 0-1.313.228-1.738.685-.425.457-.638 1.135-.638 2.032v7.457h-3.8v-13.4h3.8v1.916c.217-.285.454-.559.713-.818.258-.261.546-.492.862-.693.317-.201.667-.361 1.05-.478.384-.117.817-.177 1.301-.177zm142.866-4.6v18.25h-3.8v-18.25h3.8zm-159.598 12.35c-.817 0-1.46.16-1.925.475-.467.317-.7.775-.7 1.375v.05c0 .517.19.917.575 1.2.383.283.883.425 1.5.425.9 0 1.62-.217 2.162-.65.542-.433.813-1 .813-1.7v-.675c-.334-.15-.704-.27-1.113-.363-.408-.09-.846-.137-1.312-.137zm109.856 0c-.817 0-1.458.16-1.925.475-.467.317-.7.775-.7 1.375v.05c0 .517.192.917.575 1.2.383.283.883.425 1.5.425.9 0 1.621-.217 2.163-.65.541-.433.812-1 .812-1.7v-.675c-.333-.15-.704-.27-1.113-.363-.408-.09-.845-.137-1.312-.137zm-80.102 0c-.817 0-1.46.16-1.925.475-.467.317-.7.775-.7 1.375v.05c0 .517.192.917.575 1.2.382.283.882.425 1.5.425.9 0 1.62-.217 2.161-.65.543-.433.814-1 .814-1.7v-.675c-.334-.15-.704-.27-1.113-.363-.408-.09-.846-.137-1.312-.137zm139.533-4.474c-.55 0-1.037.095-1.463.287-.424.192-.787.454-1.087.788-.3.333-.529.72-.688 1.162-.158.44-.237.912-.237 1.412v.05c0 .5.083.97.25 1.413.166.44.408.834.725 1.175.316.34.688.612 1.113.812.424.2.903.3 1.437.3.55 0 1.038-.096 1.462-.287.426-.192.788-.454 1.087-.787.301-.334.53-.721.688-1.163.16-.442.238-.912.238-1.412v-.05c0-.5-.084-.971-.25-1.413-.167-.442-.409-.833-.725-1.175-.317-.342-.692-.612-1.125-.813-.434-.2-.909-.3-1.425-.3zm-100.182 0c-.55 0-1.037.095-1.463.287-.424.192-.787.454-1.088.788-.299.333-.528.72-.687 1.162-.158.44-.237.912-.237 1.412v.05c0 .5.083.97.25 1.413.166.44.408.834.725 1.175.316.34.687.612 1.113.812.424.2.903.3 1.437.3.55 0 1.038-.096 1.462-.287.425-.192.788-.454 1.088-.787.3-.334.53-.721.687-1.163.16-.442.238-.912.238-1.412v-.05c0-.5-.084-.971-.25-1.413-.167-.442-.409-.833-.725-1.175-.317-.342-.692-.612-1.125-.813-.434-.2-.909-.3-1.425-.3zm-132.357-.05c-.45 0-.87.087-1.262.262-.392.175-.738.425-1.038.75-.3.325-.537.712-.712 1.163-.176.45-.263.958-.263 1.524v.05c0 .55.087 1.054.263 1.512.175.459.412.85.712 1.176.3.325.646.575 1.038.75.391.175.812.262 1.262.262.45 0 .871-.087 1.263-.262.391-.175.733-.425 1.025-.75.291-.325.525-.717.7-1.176.175-.458.262-.961.262-1.511v-.051c0-.55-.087-1.054-.262-1.512-.175-.46-.409-.85-.7-1.175-.292-.325-.634-.575-1.025-.75-.392-.175-.813-.262-1.263-.262zm115.78 0c-.45 0-.871.087-1.262.262-.392.175-.738.425-1.038.75-.3.325-.537.712-.712 1.163-.176.45-.263.958-.263 1.524v.05c0 .55.087 1.054.263 1.512.175.459.412.85.712 1.176.3.325.646.575 1.038.75.39.175.812.262 1.262.262.45 0 .87-.087 1.263-.262.39-.175.733-.425 1.025-.75.29-.325.525-.717.7-1.176.175-.458.262-.961.262-1.511v-.051c0-.55-.087-1.054-.262-1.512-.175-.46-.41-.85-.7-1.175-.292-.325-.634-.575-1.025-.75-.392-.175-.813-.262-1.263-.262zm-217.883-8.6c-3.1 0-5.568 2.014-5.568 6.278 0 3.849 2.579 5.785 5.542 5.785 3.375 0 5.881-2.444 5.881-6.031 0-3.59-2.479-6.033-5.855-6.033zm118.128 8.423c-.8 0-1.446.26-1.937.776-.492.516-.813 1.21-.963 2.075h5.725c-.117-.85-.417-1.538-.9-2.063-.483-.525-1.125-.788-1.925-.788zm193.97 0c-.8 0-1.446.26-1.937.776-.492.516-.813 1.21-.963 2.075h5.725c-.117-.85-.417-1.538-.9-2.063-.483-.525-1.125-.788-1.925-.788zm-157.296-8.53c1.186 0 2.178.995 2.178 2.182 0 1.188-.992 2.182-2.178 2.182s-2.178-.994-2.178-2.182c0-1.187.992-2.181 2.178-2.181zm113.476-20.52c1.116 0 2.083.202 2.9.602.817.399 1.496.937 2.038 1.612.541.675.941 1.45 1.2 2.326.258.875.388 1.787.388 2.737 0 .149-.005.308-.013.474-.009.167-.021.342-.038.526h-9.324c.182.866.562 1.52 1.137 1.962.575.442 1.287.663 2.137.663.634 0 1.2-.11 1.7-.325.5-.217 1.017-.567 1.55-1.05l2.175 1.925c-.633.783-1.4 1.396-2.3 1.837-.9.442-1.958.663-3.175.663-1 0-1.929-.167-2.787-.5-.858-.333-1.6-.81-2.225-1.425-.625-.616-1.113-1.346-1.462-2.188-.351-.841-.526-1.78-.526-2.812v-.05c0-.95.163-1.851.488-2.7.325-.851.779-1.592 1.362-2.226.584-.633 1.28-1.133 2.088-1.5.808-.366 1.704-.55 2.687-.55zm-79.247 0c1.033 0 1.991.18 2.875.539.883.359 1.646.85 2.287 1.475.642.625 1.146 1.358 1.513 2.2.367.842.55 1.746.55 2.712v.05c0 .968-.183 1.872-.55 2.713-.367.84-.875 1.579-1.526 2.213-.649.633-1.416 1.133-2.299 1.5-.884.366-1.85.549-2.9.549-1.033 0-1.992-.18-2.875-.537-.884-.358-1.646-.85-2.287-1.475-.642-.625-1.146-1.36-1.513-2.2-.367-.841-.55-1.746-.55-2.712v-.05c0-.967.183-1.871.55-2.713.367-.842.875-1.58 1.525-2.213.65-.633 1.417-1.133 2.3-1.5.883-.366 1.85-.55 2.9-.55zm130.458.001c1.266 0 2.317.2 3.15.6.833.4 1.567.95 2.2 1.65l-2.325 2.5c-.433-.45-.879-.808-1.338-1.075-.458-.266-1.029-.4-1.712-.4-.483 0-.92.096-1.313.287-.39.193-.733.454-1.025.788-.29.333-.516.721-.674 1.162-.159.442-.238.913-.238 1.413v.05c0 .517.08 1 .238 1.45.158.45.387.841.687 1.175.3.333.658.596 1.075.787.416.192.883.288 1.4.288.634 0 1.187-.129 1.662-.387.476-.259.946-.605 1.413-1.038l2.225 2.25c-.65.717-1.392 1.304-2.225 1.763-.833.458-1.917.687-3.25.687-1 0-1.929-.184-2.788-.55-.858-.366-1.595-.862-2.212-1.487-.616-.625-1.1-1.359-1.45-2.2-.35-.842-.525-1.738-.525-2.688v-.05c0-.95.175-1.85.525-2.7.35-.85.834-1.592 1.45-2.225.617-.633 1.354-1.133 2.212-1.5.86-.367 1.805-.55 2.838-.55zm-90.684 0c1.033 0 1.992.18 2.875.538.883.359 1.646.85 2.288 1.475.641.625 1.145 1.358 1.512 2.2.367.842.55 1.746.55 2.712v.05c0 .968-.183 1.872-.55 2.713-.367.84-.875 1.579-1.525 2.213-.65.633-1.417 1.133-2.3 1.5-.884.366-1.85.549-2.9.549-1.033 0-1.992-.18-2.875-.537-.884-.358-1.646-.85-2.287-1.475-.642-.625-1.146-1.36-1.513-2.2-.367-.841-.55-1.746-.55-2.712v-.05c0-.967.183-1.871.55-2.713.367-.842.875-1.58 1.525-2.213.65-.633 1.416-1.133 2.3-1.5.883-.366 1.85-.55 2.9-.55zm54.756 0c1.266 0 2.316.2 3.15.6.833.4 1.566.95 2.2 1.65l-2.325 2.5c-.434-.45-.88-.808-1.338-1.075-.458-.266-1.03-.4-1.712-.4-.484 0-.921.096-1.313.287-.391.193-.733.454-1.025.788-.291.333-.516.721-.675 1.162-.158.442-.237.913-.237 1.413v.05c0 .517.079 1 .237 1.45.159.45.388.841.688 1.175.3.333.658.596 1.075.787.416.192.883.288 1.4.288.633 0 1.187-.129 1.662-.387.476-.259.946-.605 1.413-1.038l2.225 2.25c-.65.717-1.392 1.304-2.225 1.763-.834.458-1.917.687-3.25.687-1 0-1.93-.184-2.788-.55-.858-.366-1.595-.862-2.212-1.487-.617-.625-1.1-1.359-1.45-2.2-.35-.842-.525-1.738-.525-2.688v-.05c0-.95.175-1.85.525-2.7.35-.85.833-1.592 1.45-2.225s1.354-1.133 2.212-1.5c.859-.367 1.804-.55 2.838-.55zm49.495 0c1.034 0 1.992.18 2.875.538.884.359 1.646.85 2.288 1.475.641.625 1.146 1.358 1.512 2.2.368.842.55 1.746.55 2.712v.05c0 .968-.183 1.872-.55 2.713-.366.84-.875 1.579-1.525 2.213-.65.633-1.416 1.133-2.3 1.5-.883.366-1.85.549-2.9.549-1.032 0-1.992-.18-2.874-.537-.885-.358-1.647-.85-2.288-1.475-.642-.625-1.145-1.36-1.513-2.2-.366-.841-.55-1.746-.55-2.712v-.05c0-.967.183-1.871.55-2.713.368-.842.875-1.58 1.525-2.213.65-.633 1.417-1.133 2.3-1.5.884-.366 1.85-.55 2.9-.55zm-210.608.05c.85 0 1.713.137 2.588.412.875.275 1.678.655 2.412 1.138l-1.45 2.625c-.667-.384-1.317-.687-1.95-.913-.633-.225-1.192-.337-1.675-.337-.467 0-.817.087-1.05.262-.233.176-.35.396-.35.663v.05c0 .183.075.346.225.487.15.142.35.275.6.4s.537.247.863.363c.324.117.67.233 1.037.35.467.15.942.33 1.425.538.483.208.917.461 1.3.762.383.3.7.666.95 1.1.25.433.375.96.375 1.575v.05c0 .75-.13 1.396-.388 1.937-.258.542-.621.988-1.087 1.338-.467.35-1.012.613-1.637.787-.625.175-1.297.263-2.013.263-.95 0-1.921-.163-2.912-.487-.992-.325-1.938-.838-2.838-1.538l1.625-2.5c.733.534 1.463.933 2.188 1.2.725.266 1.403.4 2.037.4.55 0 .954-.092 1.212-.275.259-.184.388-.425.388-.725v-.05c0-.2-.075-.376-.225-.525-.15-.15-.354-.279-.613-.388-.258-.108-.554-.213-.887-.312-.333-.1-.683-.208-1.05-.325-.467-.133-.937-.296-1.412-.488-.475-.19-.905-.44-1.288-.75-.383-.308-.696-.687-.937-1.137-.242-.45-.363-1-.363-1.65v-.05c0-.683.129-1.288.388-1.813.258-.525.608-.97 1.05-1.337.44-.366.958-.642 1.55-.825.59-.184 1.229-.276 1.912-.276zm38.549.2v7.457c0 .897.2 1.575.6 2.032.4.457.966.685 1.7.685.733 0 1.312-.228 1.738-.685.424-.457.637-1.135.637-2.032V11.86h3.8v13.4h-3.8v-1.916c-.217.286-.454.56-.713.818-.258.261-.545.492-.862.693-.317.202-.667.361-1.05.478-.383.117-.817.177-1.3.177-1.45 0-2.571-.44-3.362-1.325-.792-.883-1.188-2.1-1.188-3.65v-8.675h3.8zm95.912-3.425v3.425h3.15v3.25h-3.15v5.745c0 .87.408 1.305 1.225 1.305.666 0 1.292-.166 1.875-.5v3.051c-.4.233-.842.42-1.325.562-.484.141-1.042.212-1.675.212-.583 0-1.112-.062-1.587-.187-.476-.125-.884-.346-1.226-.663-.341-.316-.608-.729-.8-1.237-.191-.509-.287-1.154-.287-1.937v-6.351h-1.6v-3.25h1.6V8.434h3.8zm-105.285 0v3.425h3.15v3.25h-3.15v5.745c0 .87.409 1.305 1.226 1.305.666 0 1.291-.166 1.875-.5v3.051c-.4.233-.842.42-1.325.562-.485.141-1.043.212-1.675.212-.584 0-1.113-.062-1.587-.187-.476-.125-.885-.346-1.226-.663-.341-.316-.608-.729-.8-1.237-.191-.509-.287-1.154-.287-1.937v-6.351h-1.6v-3.25h1.6V8.434h3.8zm25.387 0v3.425h3.15v3.25h-3.15v5.745c0 .87.41 1.305 1.225 1.305.667 0 1.292-.166 1.875-.5v3.051c-.4.233-.842.42-1.325.562-.484.141-1.042.212-1.675.212-.583 0-1.112-.062-1.587-.187-.475-.125-.884-.346-1.225-.663-.342-.316-.609-.729-.8-1.237-.192-.509-.288-1.154-.288-1.937v-6.351h-1.6v-3.25h1.6V8.434h3.8zm-42.54 0v3.425h3.15v3.25h-3.15v5.745c0 .87.408 1.305 1.224 1.305.667 0 1.292-.166 1.875-.5v3.051c-.4.233-.842.42-1.325.562-.484.141-1.042.212-1.675.212-.583 0-1.112-.062-1.587-.187-.476-.125-.884-.346-1.226-.663-.34-.316-.608-.729-.799-1.237-.192-.509-.288-1.154-.288-1.937v-6.351h-1.6v-3.25h1.6V8.434h3.8zm79.085-.674c1.05 0 1.987.145 2.812.437.825.292 1.525.704 2.1 1.238.575.533 1.017 1.17 1.325 1.912.308.742.463 1.562.463 2.463v.049c0 1.017-.184 1.91-.551 2.675-.366.768-.87 1.409-1.512 1.926-.641.517-1.391.904-2.25 1.162-.858.259-1.78.388-2.762.388h-2.925v5.25h-3.85V7.76h7.15zm85.087 3.849c1.45 0 2.57.442 3.363 1.325.79.884 1.187 2.1 1.187 3.651v8.674h-3.8v-7.457c0-.897-.2-1.575-.6-2.032-.4-.457-.967-.685-1.7-.685-.734 0-1.312.228-1.738.685-.424.457-.637 1.135-.637 2.032v7.457h-3.8v-13.4h3.8v1.916c.217-.285.454-.559.713-.818.258-.261.546-.492.862-.693.316-.201.667-.361 1.05-.478.384-.117.817-.177 1.3-.177zm-154.58.25v13.4h-3.8v-13.4h3.8zm105.284 0v13.4h-3.8v-13.4h3.8zm60.698 0v13.4h-3.8v-13.4h3.8zm-210.991-4.1v17.5h-3.85v-17.5h3.85zm143.241-.75v18.25h-3.8V7.009h3.8zm-131.921 4.6c1.45 0 2.57.442 3.362 1.325.79.884 1.188 2.1 1.188 3.651v8.674h-3.8v-7.457c0-.897-.2-1.575-.6-2.032-.4-.457-.967-.685-1.7-.685-.734 0-1.313.228-1.738.685-.425.457-.637 1.135-.637 2.032v7.457h-3.8v-13.4h3.8v1.916c.216-.285.453-.559.712-.818.259-.261.546-.492.863-.693.316-.201.666-.361 1.05-.478.383-.117.816-.177 1.3-.177zm78.607 3.276c-.55 0-1.037.095-1.463.287-.424.192-.787.454-1.088.788-.299.333-.528.72-.687 1.162-.158.44-.237.912-.237 1.412v.05c0 .5.084.97.25 1.413.167.44.408.834.725 1.175.317.34.688.612 1.113.812.424.2.903.3 1.437.3.55 0 1.037-.096 1.462-.287.425-.192.788-.454 1.088-.787.3-.334.53-.721.687-1.163.16-.442.238-.912.238-1.412v-.05c0-.5-.083-.971-.25-1.413-.167-.442-.409-.833-.725-1.175-.317-.342-.692-.612-1.125-.813-.434-.2-.909-.3-1.425-.3zm39.774 0c-.55 0-1.037.095-1.462.287-.425.192-.788.454-1.088.788-.3.333-.529.72-.688 1.162-.158.44-.237.912-.237 1.412v.05c0 .5.083.97.25 1.413.167.44.408.834.725 1.175.317.34.688.612 1.113.812.425.2.903.3 1.437.3.55 0 1.038-.096 1.462-.287.426-.192.788-.454 1.088-.787.3-.334.53-.721.688-1.163.158-.442.237-.912.237-1.412v-.05c0-.5-.083-.971-.25-1.413-.167-.442-.409-.833-.725-1.175-.317-.342-.692-.612-1.125-.813-.434-.2-.909-.3-1.425-.3zm104.252 0c-.55 0-1.038.095-1.462.287-.425.192-.788.454-1.089.788-.3.333-.529.72-.687 1.162-.159.44-.238.912-.238 1.412v.05c0 .5.084.97.25 1.413.168.44.409.834.726 1.175.317.34.688.612 1.112.812.426.2.904.3 1.438.3.55 0 1.038-.096 1.462-.287.425-.192.787-.454 1.087-.787.3-.334.53-.721.689-1.163.157-.442.237-.912.237-1.412v-.05c0-.5-.083-.971-.25-1.413-.167-.442-.41-.833-.726-1.175-.316-.342-.69-.612-1.125-.813-.433-.2-.908-.3-1.424-.3zm-64.729-.226c-.8 0-1.446.259-1.937.776-.492.516-.813 1.209-.963 2.075h5.725c-.116-.851-.417-1.538-.9-2.063-.483-.525-1.125-.788-1.925-.788zm-55.047-3.425h-2.975v5.35h3.05c.966 0 1.716-.253 2.25-.762.533-.508.8-1.137.8-1.887v-.05c0-.866-.28-1.526-.838-1.976-.558-.45-1.321-.675-2.287-.675zM5.107.734c2.736 0 5.024 2.291 5.024 5.033 0 2.739-2.288 5.03-5.024 5.03-2.735 0-5.023-2.291-5.023-5.03C.084 3.025 2.372.734 5.107.734zM169.125 6.16c1.187 0 2.178.994 2.178 2.181 0 1.188-.991 2.182-2.178 2.182-1.185 0-2.178-.994-2.178-2.182 0-1.187.993-2.18 2.178-2.18zm165.982-.017c1.187 0 2.18.993 2.18 2.18 0 1.189-.993 2.182-2.18 2.182-1.186 0-2.178-.993-2.178-2.182 0-1.187.992-2.18 2.178-2.18zm-60.697-.01c1.186 0 2.178.993 2.178 2.18 0 1.189-.992 2.182-2.178 2.182s-2.178-.993-2.178-2.182c0-1.187.992-2.18 2.178-2.18zm22.131-.172l3.275 1.425-3.2 3h-2.9l2.825-4.425zM96.166 2.265v7h-78v-7h78z"/>
</svg>
